<svg xmlns="http://www.w3.org/2000/svg" width="1600" height="900" viewBox="0 0 1600 900">
  <defs>
    <linearGradient id="bg" x1="0" y1="0" x2="1" y2="1">
      <stop offset="0" stop-color="#fdfaf2"/>
      <stop offset="1" stop-color="#efe6d2"/>
    </linearGradient>
    <linearGradient id="sun" x1="0" y1="0" x2="0" y2="1">
      <stop offset="0" stop-color="#b7282e"/>
      <stop offset="1" stop-color="#8c1c22"/>
    </linearGradient>
    <pattern id="wave" width="80" height="40" patternUnits="userSpaceOnUse">
      <path d="M0 40 Q20 10 40 40 T80 40" fill="none" stroke="#d8c9ab" stroke-width="2" opacity="0.6"/>
      <path d="M0 20 Q20 -10 40 20 T80 20" fill="none" stroke="#e6dcc5" stroke-width="2" opacity="0.6"/>
    </pattern>
  </defs>
  <rect width="1600" height="900" fill="url(#bg)"/>
  <rect width="1600" height="900" fill="url(#wave)" opacity="0.6"/>
  <circle cx="1150" cy="220" r="160" fill="url(#sun)" opacity="0.9"/>
  <g opacity="0.25">
    <path d="M0 760 C240 700 420 820 700 760 C980 700 1180 820 1600 760 L1600 900 L0 900 Z" fill="#b7282e"/>
  </g>
  <g opacity="0.2">
    <path d="M0 680 C260 620 520 740 840 690 C1160 640 1320 740 1600 700 L1600 900 L0 900 Z" fill="#1e293b"/>
  </g>
</svg>
